<svg width="48" height="49" viewBox="0 0 48 49" fill="none" xmlns="http://www.w3.org/2000/svg">
<g clip-path="url(#clip0_197_19)">
<path d="M47.9935 18.698H42.5935V24.242H38.9935V18.698H33.5935V15.386H38.9935V9.84199H42.5935V15.386H47.9935V18.698ZM32.3935 26.642V33.842H15.5935V21.842C15.5935 17.21 19.3615 13.442 23.9935 13.442C25.3855 13.442 26.7055 13.778 27.8575 14.378L30.4975 11.738C29.2495 10.97 27.8815 10.394 26.3935 10.082V7.44199C26.3935 6.12199 25.3135 5.04199 23.9935 5.04199C22.6735 5.04199 21.5935 6.12199 21.5935 7.44199V10.082C16.1215 11.186 11.9935 16.034 11.9935 21.842V33.842H9.59351V37.442H38.3935V33.842H35.9935V26.642H32.3935ZM23.9935 43.442C25.9855 43.442 27.5935 41.834 27.5935 39.842H20.3935C20.3935 41.834 22.0015 43.442 23.9935 43.442Z" fill="#111827"/>
</g>
<defs>
<clipPath id="clip0_197_19">
<rect width="48" height="48" fill="white" transform="translate(-0.0065918 0.242188)"/>
</clipPath>
</defs>
</svg>
