<svg width="49" height="49" viewBox="0 0 49 49" fill="none" xmlns="http://www.w3.org/2000/svg">
<g clip-path="url(#clip0_187_2)">
<path d="M20.0996 19.9507C24.5179 19.9507 28.0996 16.369 28.0996 11.9507C28.0996 7.53241 24.5179 3.95068 20.0996 3.95068C15.6813 3.95068 12.0996 7.53241 12.0996 11.9507C12.0996 16.369 15.6813 19.9507 20.0996 19.9507Z" fill="#111827"/>
<path d="M22.4594 43.3107C22.0188 42.8749 21.7312 42.308 21.6399 41.695C21.5485 41.0821 21.6583 40.456 21.9527 39.9107L22.6594 38.5773L21.2061 38.1373C20.6134 37.9518 20.0974 37.5781 19.7365 37.0727C19.3755 36.5674 19.1893 35.9581 19.2061 35.3373V32.604C19.2049 31.986 19.4027 31.3839 19.77 30.8869C20.1374 30.3899 20.6549 30.0243 21.2461 29.844L22.6994 29.404L22.0061 28.0707C21.7203 27.5328 21.6115 26.9184 21.6953 26.3151C21.7791 25.7118 22.0512 25.1503 22.4727 24.7107C21.447 24.5762 20.4139 24.5049 19.3794 24.4973C16.3238 24.4254 13.29 25.0286 10.4944 26.264C7.69873 27.4993 5.21012 29.3363 3.20605 31.644V41.9773C3.20605 42.331 3.34653 42.6701 3.59658 42.9201C3.84663 43.1702 4.18577 43.3107 4.53939 43.3107H22.4594Z" fill="#111827"/>
<path d="M45.4731 32.164L42.8064 31.364C42.6216 30.7055 42.3622 30.0702 42.0331 29.4707L43.3664 26.9907C43.4179 26.8986 43.4368 26.7918 43.4198 26.6877C43.4029 26.5836 43.3511 26.4883 43.2731 26.4173L41.3397 24.4707C41.2653 24.3982 41.1703 24.3504 41.0678 24.3337C40.9652 24.317 40.86 24.3322 40.7664 24.3773L38.2997 25.7107C37.6926 25.3808 37.0538 25.1128 36.3931 24.9107L35.5797 22.244C35.5439 22.1457 35.4786 22.0608 35.3926 22.0011C35.3067 21.9415 35.2044 21.9099 35.0997 21.9107H32.3264C32.2224 21.9136 32.1219 21.9484 32.0384 22.0104C31.9549 22.0724 31.8925 22.1586 31.8597 22.2573L31.0597 24.924C30.3862 25.12 29.7375 25.3929 29.1264 25.7373L26.7131 24.404C26.6192 24.3541 26.5121 24.335 26.4068 24.3494C26.3016 24.3637 26.2035 24.4108 26.1264 24.484L24.1664 26.404C24.0892 26.4784 24.0384 26.5759 24.0215 26.6817C24.0047 26.7876 24.0228 26.896 24.0731 26.9907L25.4064 29.4173C25.0492 30.0196 24.7586 30.6589 24.5397 31.324L21.8731 32.1373C21.7722 32.1665 21.6837 32.2279 21.6211 32.3122C21.5584 32.3965 21.5252 32.499 21.5264 32.604V35.3373C21.5252 35.4423 21.5584 35.5448 21.6211 35.6291C21.6837 35.7134 21.7722 35.7748 21.8731 35.804L24.5397 36.6173C24.7396 37.2704 25.0078 37.9005 25.3397 38.4973L24.0064 41.0307C23.9561 41.1253 23.938 41.2338 23.9549 41.3396C23.9717 41.4455 24.0226 41.5429 24.0997 41.6173L26.0864 43.5507C26.1634 43.6238 26.2616 43.6709 26.3668 43.6853C26.4721 43.6996 26.5792 43.6805 26.6731 43.6307L29.1664 42.2973C29.7598 42.6165 30.3855 42.8712 31.0331 43.0573L31.8331 45.7907C31.8666 45.8915 31.931 45.9792 32.0172 46.0414C32.1033 46.1036 32.2068 46.1372 32.3131 46.1373H35.0464C35.1504 46.1344 35.2509 46.0996 35.3344 46.0376C35.4179 45.9756 35.4803 45.8894 35.5131 45.7907L36.3131 43.0573C36.9529 42.8735 37.5701 42.6186 38.1531 42.2973L40.6731 43.6307C40.7669 43.6805 40.874 43.6996 40.9793 43.6853C41.0846 43.6709 41.1827 43.6238 41.2597 43.5507L43.2064 41.6173C43.2796 41.5403 43.3267 41.4422 43.341 41.3369C43.3554 41.2316 43.3363 41.1245 43.2864 41.0307L41.9531 38.524C42.272 37.9399 42.5268 37.3229 42.7131 36.684L45.3797 35.8707C45.4799 35.8384 45.568 35.7766 45.6322 35.6933C45.6965 35.6099 45.734 35.5091 45.7397 35.404V32.644C45.743 32.5473 45.7199 32.4516 45.6729 32.367C45.6259 32.2825 45.5569 32.2123 45.4731 32.164ZM33.6997 38.4573C32.8184 38.46 31.9561 38.201 31.222 37.7133C30.4879 37.2256 29.915 36.531 29.5759 35.7175C29.2368 34.904 29.1467 34.0081 29.317 33.1434C29.4873 32.2787 29.9104 31.4839 30.5327 30.8598C31.155 30.2356 31.9485 29.8101 32.8127 29.6372C33.6769 29.4643 34.573 29.5517 35.3875 29.8884C36.202 30.2251 36.8983 30.7958 37.3883 31.5285C37.8782 32.2611 38.1397 33.1226 38.1397 34.004C38.1397 35.1828 37.6724 36.3135 36.8401 37.1483C36.0078 37.983 34.8785 38.4538 33.6997 38.4573Z" fill="#111827"/>
</g>
<defs>
<clipPath id="clip0_187_2">
<rect width="48" height="48" fill="white" transform="translate(0.539551 0.884033)"/>
</clipPath>
</defs>
</svg>
