<svg width="49" height="49" viewBox="0 0 49 49" fill="none" xmlns="http://www.w3.org/2000/svg">
<path fill-rule="evenodd" clip-rule="evenodd" d="M7.13369 36.5079C6.50882 37.1329 6.50882 38.146 7.13369 38.771C7.75852 39.3956 8.77157 39.3956 9.39641 38.771L22.1964 25.9708C22.8213 25.346 22.8213 24.3329 22.1964 23.7081L9.39641 10.9081C8.77157 10.2832 7.75852 10.2832 7.13369 10.9081C6.50882 11.5329 6.50882 12.546 7.13369 13.1708L18.8023 24.8395L7.13369 36.5079ZM26.3337 36.5079C25.7088 37.1329 25.7088 38.146 26.3337 38.771C26.9585 39.3956 27.9716 39.3956 28.5964 38.771L41.3966 25.9708C42.0212 25.346 42.0212 24.3329 41.3966 23.7081L28.5964 10.9081C27.9716 10.2832 26.9585 10.2832 26.3337 10.9081C25.7088 11.5329 25.7088 12.546 26.3337 13.1708L38.0023 24.8395L26.3337 36.5079Z" fill="#111827"/>
</svg>
