<svg width="48" height="48" viewBox="0 0 48 48" fill="none" xmlns="http://www.w3.org/2000/svg">
<path d="M41.7941 6.20569C39.9197 4.33117 36.8804 4.33117 35.006 6.20569L16.8 24.4116V31.1998H23.5883L41.7941 12.9939C43.6688 11.1194 43.6688 8.08019 41.7941 6.20569Z" fill="#111827"/>
<path fill-rule="evenodd" clip-rule="evenodd" d="M4.80005 14.4001C4.80005 11.7491 6.94908 9.6001 9.60005 9.6001H19.2C20.5255 9.6001 21.6 10.6746 21.6 12.0001C21.6 13.3256 20.5255 14.4001 19.2 14.4001H9.60005V38.4001H33.6V28.8001C33.6 27.4746 34.6745 26.4001 36 26.4001C37.3256 26.4001 38.4 27.4746 38.4 28.8001V38.4001C38.4 41.0511 36.2511 43.2001 33.6 43.2001H9.60005C6.94908 43.2001 4.80005 41.0511 4.80005 38.4001V14.4001Z" fill="#111827"/>
</svg>
