<svg width="49" height="49" viewBox="0 0 49 49" fill="none" xmlns="http://www.w3.org/2000/svg">
<g clip-path="url(#clip0_216_31)">
<path d="M26.8389 42.0957V46.0957H22.8389V42.0957H6.83887C6.30843 42.0957 5.79973 41.885 5.42465 41.5099C5.04958 41.1348 4.83887 40.6261 4.83887 40.0957V8.09571C4.83887 7.56528 5.04958 7.05657 5.42465 6.6815C5.79973 6.30642 6.30843 6.09571 6.83887 6.09571H18.8389C19.974 6.09436 21.0964 6.33522 22.1311 6.8022C23.1658 7.26919 24.0889 7.95154 24.8389 8.80371C25.5888 7.95154 26.512 7.26919 27.5466 6.8022C28.5813 6.33522 29.7037 6.09436 30.8389 6.09571H42.8389C43.3693 6.09571 43.878 6.30642 44.2531 6.6815C44.6282 7.05657 44.8389 7.56528 44.8389 8.09571V40.0957C44.8389 40.6261 44.6282 41.1348 44.2531 41.5099C43.878 41.885 43.3693 42.0957 42.8389 42.0957H26.8389ZM40.8389 38.0957V10.0957H30.8389C29.778 10.0957 28.7606 10.5171 28.0104 11.2673C27.2603 12.0174 26.8389 13.0348 26.8389 14.0957V38.0957H40.8389ZM22.8389 38.0957V14.0957C22.8389 13.0348 22.4174 12.0174 21.6673 11.2673C20.9171 10.5171 19.8997 10.0957 18.8389 10.0957H8.83887V38.0957H22.8389Z" fill="#111827"/>
</g>
<defs>
<clipPath id="clip0_216_31">
<rect width="48" height="48" fill="white" transform="translate(0.838867 0.0957031)"/>
</clipPath>
</defs>
</svg>
