<svg width="49" height="49" viewBox="0 0 49 49" fill="none" xmlns="http://www.w3.org/2000/svg">
<g clip-path="url(#clip0_195_2)">
<path fill-rule="evenodd" clip-rule="evenodd" d="M7.58203 5.83057C7.58203 5.63165 7.66105 5.44089 7.8017 5.30024C7.94235 5.15958 8.13312 5.08057 8.33203 5.08057H33.832C34.0309 5.08057 34.2217 5.15958 34.3624 5.30024C34.503 5.44089 34.582 5.63165 34.582 5.83057V29.0386C34.582 29.6353 34.8191 30.2076 35.241 30.6296C35.663 31.0515 36.2353 31.2886 36.832 31.2886C37.4288 31.2886 38.0011 31.0515 38.423 30.6296C38.845 30.2076 39.082 29.6353 39.082 29.0386V5.83057C39.082 4.43818 38.5289 3.10282 37.5443 2.11826C36.5598 1.13369 35.2244 0.580566 33.832 0.580566H8.33203C6.93964 0.580566 5.60429 1.13369 4.61972 2.11826C3.63515 3.10282 3.08203 4.43818 3.08203 5.83057V40.3306C3.08203 43.2286 5.43403 45.5806 8.33203 45.5806H17.842C18.4388 45.5806 19.0111 45.3435 19.433 44.9216C19.855 44.4996 20.092 43.9273 20.092 43.3306C20.092 42.7338 19.855 42.1615 19.433 41.7396C19.0111 41.3176 18.4388 41.0806 17.842 41.0806H8.33203C8.13312 41.0806 7.94235 41.0015 7.8017 40.8609C7.66105 40.7202 7.58203 40.5295 7.58203 40.3306V5.83057ZM14.332 12.5806C13.7353 12.5806 13.163 12.8176 12.741 13.2396C12.3191 13.6615 12.082 14.2338 12.082 14.8306C12.082 15.4273 12.3191 15.9996 12.741 16.4216C13.163 16.8435 13.7353 17.0806 14.332 17.0806H27.832C28.4288 17.0806 29.0011 16.8435 29.423 16.4216C29.845 15.9996 30.082 15.4273 30.082 14.8306C30.082 14.2338 29.845 13.6615 29.423 13.2396C29.0011 12.8176 28.4288 12.5806 27.832 12.5806H14.332ZM12.082 23.8306C12.082 23.2338 12.3191 22.6615 12.741 22.2396C13.163 21.8176 13.7353 21.5806 14.332 21.5806H20.332C20.9288 21.5806 21.5011 21.8176 21.923 22.2396C22.345 22.6615 22.582 23.2338 22.582 23.8306C22.582 24.4273 22.345 24.9996 21.923 25.4216C21.5011 25.8435 20.9288 26.0806 20.332 26.0806H14.332C13.7353 26.0806 13.163 25.8435 12.741 25.4216C12.3191 24.9996 12.082 24.4273 12.082 23.8306ZM47.404 34.4416C47.6156 34.2351 47.7844 33.989 47.9009 33.7174C48.0173 33.4457 48.0791 33.1537 48.0828 32.8581C48.0864 32.5626 48.0317 32.2692 47.922 31.9947C47.8122 31.7203 47.6495 31.4701 47.443 31.2586C47.2366 31.047 46.9905 30.8782 46.7188 30.7617C46.4471 30.6453 46.1552 30.5835 45.8596 30.5798C45.564 30.5762 45.2707 30.6309 44.9962 30.7406C44.7217 30.8504 44.4716 31.0131 44.26 31.2196L32.182 43.0156L27.925 38.7406C27.4993 38.3423 26.9355 38.1248 26.3526 38.134C25.7696 38.1432 25.213 38.3783 24.8 38.7897C24.387 39.2012 24.1498 39.7569 24.1384 40.3398C24.127 40.9227 24.3424 41.4873 24.739 41.9146L30.568 47.7646C30.9861 48.1846 31.553 48.4227 32.1456 48.4272C32.7382 48.4317 33.3086 48.2022 33.733 47.7886L47.404 34.4416Z" fill="#79DC47"/>
</g>
<defs>
<clipPath id="clip0_195_2">
<rect width="48" height="48" fill="white" transform="translate(0.0820312 0.580566)"/>
</clipPath>
</defs>
</svg>
