<svg width="48" height="49" viewBox="0 0 48 49" fill="none" xmlns="http://www.w3.org/2000/svg">
<g clip-path="url(#clip0_189_15)">
<path d="M37.9966 17.4632L27.3306 9.16724C26.3946 8.43906 25.2426 8.0437 24.0566 8.0437C22.8707 8.0437 21.7187 8.43906 20.7826 9.16724L10.1146 17.4632C9.47353 17.9618 8.95483 18.6003 8.59815 19.3299C8.24148 20.0596 8.05626 20.8611 8.05664 21.6732V36.0732C8.05664 37.1341 8.47807 38.1515 9.22821 38.9017C9.97836 39.6518 10.9958 40.0732 12.0566 40.0732H36.0566C37.1175 40.0732 38.1349 39.6518 38.8851 38.9017C39.6352 38.1515 40.0566 37.1341 40.0566 36.0732V21.6732C40.0566 20.0272 39.2966 18.4732 37.9966 17.4632Z" stroke="#111827" stroke-width="2" stroke-linecap="round" stroke-linejoin="round"/>
<path d="M31.9966 30.0432C27.5766 32.7092 20.4126 32.7092 15.9966 30.0432" stroke="#111827" stroke-width="2" stroke-linecap="round" stroke-linejoin="round"/>
</g>
<defs>
<clipPath id="clip0_189_15">
<rect width="48" height="48" fill="white" transform="translate(-0.00341797 0.0432129)"/>
</clipPath>
</defs>
</svg>
