<svg width="48" height="44" viewBox="0 0 48 44" fill="none" xmlns="http://www.w3.org/2000/svg">
<g clip-path="url(#clip0_195_4)">
<path d="M15.6001 30.25C15.4209 30.25 15.2416 30.2801 15.0706 30.3437C14.0986 30.7055 13.0764 30.9375 12.0001 30.9375C10.9239 30.9375 9.90162 30.7055 8.92887 30.3437C8.75787 30.2801 8.57937 30.25 8.40012 30.25C3.74562 30.25 -0.0246288 34.5881 0.000121161 39.9283C0.0106212 42.185 1.62987 44 3.60012 44H20.4001C22.3704 44 23.9896 42.185 24.0001 39.9283C24.0249 34.5881 20.2546 30.25 15.6001 30.25ZM12.0001 27.5C15.9766 27.5 19.2001 23.8064 19.2001 19.25C19.2001 14.6936 15.9766 11 12.0001 11C8.02362 11 4.80012 14.6936 4.80012 19.25C4.80012 23.8064 8.02362 27.5 12.0001 27.5ZM44.4001 0H15.6001C13.6149 0 12.0001 1.91211 12.0001 4.26164V8.25C13.7566 8.25 15.3826 8.83266 16.8001 9.77969V5.5H43.2001V30.25H38.4001V24.75H28.8001V30.25H23.0821C24.5146 31.6843 25.5661 33.5784 26.0589 35.75H44.4001C46.3854 35.75 48.0001 33.8379 48.0001 31.4884V4.26164C48.0001 1.91211 46.3854 0 44.4001 0Z" fill="#3D99F5"/>
</g>
<defs>
<clipPath id="clip0_195_4">
<rect width="48" height="44" fill="white"/>
</clipPath>
</defs>
</svg>
