<svg width="48" height="48" viewBox="0 0 48 48" fill="none" xmlns="http://www.w3.org/2000/svg">
<g clip-path="url(#clip0_188_10)">
<path d="M24.0001 45.7066C24.84 45.6873 25.646 45.3715 26.2756 44.8152C26.9051 44.2588 27.3176 43.4978 27.4401 42.6666H20.4268C20.5527 43.5204 20.9845 44.2993 21.6418 44.8585C22.2991 45.4177 23.1372 45.7191 24.0001 45.7066Z" fill="#111827"/>
<path d="M43.3469 37.1067C42.0612 35.9605 40.9355 34.6465 40.0002 33.2C38.9792 31.2034 38.3672 29.023 38.2002 26.7867V20.2C38.1948 19.4 38.1235 18.6017 37.9869 17.8134C36.9374 17.6036 35.9289 17.2254 35.0002 16.6934C35.3542 17.8332 35.534 19.0199 35.5336 20.2134V26.8C35.697 29.5281 36.4474 32.1887 37.7336 34.6C38.6541 36.0587 39.7464 37.4016 40.9869 38.6H6.84023C8.08077 37.4016 9.17303 36.0587 10.0936 34.6C11.3797 32.1887 12.1301 29.5281 12.2936 26.8V20.2C12.2865 18.6569 12.584 17.1276 13.1688 15.6997C13.7537 14.2717 14.6144 12.9731 15.7018 11.8782C16.7893 10.7834 18.082 9.91381 19.5059 9.31925C20.9299 8.72469 22.4571 8.41686 24.0002 8.41337C26.2586 8.41517 28.4662 9.08304 30.3469 10.3334C30.1396 9.57202 30.0232 8.78877 30.0002 8.00003C30.0002 7.72003 30.0002 7.44003 30.0002 7.16003C28.608 6.47518 27.1124 6.02469 25.5736 5.8267V4.1467C25.5736 3.67461 25.386 3.22186 25.0522 2.88805C24.7184 2.55423 24.2656 2.3667 23.7936 2.3667C23.3215 2.3667 22.8687 2.55423 22.5349 2.88805C22.2011 3.22186 22.0136 3.67461 22.0136 4.1467V5.89337C18.5679 6.37944 15.4143 8.09569 13.1352 10.7253C10.8561 13.3549 9.6052 16.7202 9.61356 20.2V26.7867C9.44657 29.023 8.8346 31.2034 7.81356 33.2C6.89474 34.6432 5.78715 35.957 4.52023 37.1067C4.378 37.2316 4.26402 37.3854 4.18585 37.5579C4.10769 37.7303 4.06713 37.9174 4.06689 38.1067V39.92C4.06689 40.2737 4.20737 40.6128 4.45742 40.8628C4.70747 41.1129 5.04661 41.2534 5.40023 41.2534H42.4669C42.8205 41.2534 43.1597 41.1129 43.4097 40.8628C43.6598 40.6128 43.8002 40.2737 43.8002 39.92V38.1067C43.8 37.9174 43.7594 37.7303 43.6813 37.5579C43.6031 37.3854 43.4891 37.2316 43.3469 37.1067Z" fill="#111827"/>
<path d="M40.0002 14.6667C43.6821 14.6667 46.6668 11.6819 46.6668 8.00004C46.6668 4.31814 43.6821 1.33337 40.0002 1.33337C36.3183 1.33337 33.3335 4.31814 33.3335 8.00004C33.3335 11.6819 36.3183 14.6667 40.0002 14.6667Z" fill="#E51A1A"/>
</g>
<defs>
<clipPath id="clip0_188_10">
<rect width="48" height="48" fill="white"/>
</clipPath>
</defs>
</svg>
