<svg width="18" height="17" viewBox="0 0 18 17" fill="none" xmlns="http://www.w3.org/2000/svg">
<path d="M7.20443 1.70017C5.77138 1.70017 4.39702 2.23785 3.3837 3.19493C2.37038 4.15201 1.80111 5.45008 1.80111 6.8036C1.80111 8.15711 2.37038 9.45519 3.3837 10.4123C4.39702 11.3693 5.77138 11.907 7.20443 11.907C8.63748 11.907 10.0118 11.3693 11.0252 10.4123C12.0385 9.45519 12.6077 8.15711 12.6077 6.8036C12.6077 5.45008 12.0385 4.15201 11.0252 3.19493C10.0118 2.23785 8.63748 1.70017 7.20443 1.70017ZM4.4502e-08 6.8036C0.000164194 5.7207 0.273965 4.65348 0.798646 3.69063C1.32333 2.72777 2.08374 1.8971 3.01668 1.26764C3.94962 0.638181 5.02815 0.228114 6.16263 0.0715213C7.29711 -0.0850715 8.45477 0.0163317 9.53942 0.367304C10.6241 0.718275 11.6043 1.30868 12.3988 2.08945C13.1933 2.87022 13.779 3.8188 14.1073 4.85636C14.4355 5.89393 14.4969 6.99051 14.2862 8.05496C14.0755 9.11942 13.5989 10.121 12.8959 10.9765L17.7472 15.5585C17.9112 15.7189 18.002 15.9338 18 16.1568C17.9979 16.3798 17.9032 16.5932 17.7362 16.7509C17.5693 16.9086 17.3434 16.998 17.1073 17C16.8711 17.0019 16.6437 16.9162 16.4738 16.7612L11.6225 12.1792C10.5576 12.9601 9.28202 13.4431 7.94087 13.5733C6.59971 13.7034 5.24679 13.4756 4.03596 12.9155C2.82513 12.3555 1.80497 11.4858 1.09149 10.4053C0.378015 9.32487 -0.00014978 8.07699 4.4502e-08 6.8036Z" fill="#111827"/>
</svg>
