<svg width="49" height="49" viewBox="0 0 49 49" fill="none" xmlns="http://www.w3.org/2000/svg">
<path d="M18.3352 14.0718H22.3352V24.0718H32.3352V28.0718H18.3352V14.0718Z" fill="#111827"/>
<path fill-rule="evenodd" clip-rule="evenodd" d="M44.3352 24.0718C44.3352 35.1174 35.3808 44.0718 24.3352 44.0718C13.2895 44.0718 4.33521 35.1174 4.33521 24.0718C4.33521 13.0261 13.2895 4.07178 24.3352 4.07178C35.3808 4.07178 44.3352 13.0261 44.3352 24.0718ZM40.3352 24.0718C40.3352 32.9084 33.1718 40.0718 24.3352 40.0718C15.4986 40.0718 8.33521 32.9084 8.33521 24.0718C8.33521 15.2352 15.4986 8.07178 24.3352 8.07178C33.1718 8.07178 40.3352 15.2352 40.3352 24.0718Z" fill="#111827"/>
</svg>
