<svg width="49" height="49" viewBox="0 0 49 49" fill="none" xmlns="http://www.w3.org/2000/svg">
<path d="M22.3768 14.7308C22.3768 18.7072 19.1532 21.9308 15.1768 21.9308C11.2004 21.9308 7.97681 18.7072 7.97681 14.7308C7.97681 10.7543 11.2004 7.53076 15.1768 7.53076C19.1532 7.53076 22.3768 10.7543 22.3768 14.7308Z" fill="#FF7919"/>
<path d="M41.5768 14.7308C41.5768 18.7072 38.3533 21.9308 34.3768 21.9308C30.4002 21.9308 27.1768 18.7072 27.1768 14.7308C27.1768 10.7543 30.4002 7.53076 34.3768 7.53076C38.3533 7.53076 41.5768 10.7543 41.5768 14.7308Z" fill="#FF7919"/>
<path d="M31.8068 41.1305C31.9189 40.3466 31.9769 39.5453 31.9769 38.7305C31.9769 34.806 30.6313 31.1959 28.3765 28.3363C30.1414 27.3149 32.191 26.7305 34.3769 26.7305C41.0043 26.7305 46.3769 32.1031 46.3769 38.7305V41.1305H31.8068Z" fill="#FF7919"/>
<path d="M15.1768 26.7305C21.8042 26.7305 27.1768 32.1031 27.1768 38.7305V41.1305H3.17676V38.7305C3.17676 32.1031 8.54935 26.7305 15.1768 26.7305Z" fill="#FF7919"/>
</svg>
