<svg width="49" height="49" viewBox="0 0 49 49" fill="none" xmlns="http://www.w3.org/2000/svg">
<g clip-path="url(#clip0_200_22)">
<path d="M24.3823 28.9141C26.5915 28.9141 28.3823 27.1232 28.3823 24.9141C28.3823 22.7049 26.5915 20.9141 24.3823 20.9141C22.1732 20.9141 20.3823 22.7049 20.3823 24.9141C20.3823 27.1232 22.1732 28.9141 24.3823 28.9141Z" stroke="#0055FF" stroke-width="2" stroke-linecap="round" stroke-linejoin="round"/>
<path d="M24.3823 38.9141C16.3823 38.9141 9.71632 34.2481 4.38232 24.9141C9.71632 15.5801 16.3823 10.9141 24.3823 10.9141C32.3823 10.9141 39.0483 15.5801 44.3823 24.9141C43.5423 26.3861 42.6663 27.7421 41.7603 28.9801" stroke="#0055FF" stroke-width="2" stroke-linecap="round" stroke-linejoin="round"/>
<path d="M30.3823 38.9141L34.3823 42.9141L42.3823 34.9141" stroke="#0055FF" stroke-width="2" stroke-linecap="round" stroke-linejoin="round"/>
</g>
<defs>
<clipPath id="clip0_200_22">
<rect width="48" height="48" fill="white" transform="translate(0.382324 0.914062)"/>
</clipPath>
</defs>
</svg>
