<svg width="17" height="16" viewBox="0 0 17 16" fill="none" xmlns="http://www.w3.org/2000/svg">
<path d="M12.7719 11.0779L15.8057 13.9326L14.8034 14.8759L11.7704 12.0206C10.6418 12.8721 9.23807 13.3352 7.79166 13.3333C4.27266 13.3333 1.41666 10.6453 1.41666 7.33325C1.41666 4.02125 4.27266 1.33325 7.79166 1.33325C11.3107 1.33325 14.1667 4.02125 14.1667 7.33325C14.1687 8.69459 13.6766 10.0157 12.7719 11.0779ZM11.351 10.5833C12.25 9.71318 12.752 8.54687 12.75 7.33325C12.75 4.75459 10.5308 2.66659 7.79166 2.66659C5.05182 2.66659 2.83332 4.75459 2.83332 7.33325C2.83332 9.91125 5.05182 11.9999 7.79166 11.9999C9.08113 12.0018 10.3203 11.5293 11.2448 10.6833L11.351 10.5833Z" fill="white"/>
</svg>
